<mxfile host="app.diagrams.net" modified="2021-05-26T22:01:32.198Z" agent="5.0 (Windows NT 6.1; WOW64) AppleWebKit/537.36 (KHTML, like Gecko) Chrome/90.0.4430.212 Safari/537.36" etag="ORqY931_9tpEqkVxour0" version="14.7.2" type="github">
  <diagram id="fc1PL8rMpGgIyHkBwPWo" name="Page-1">
    <mxGraphModel dx="868" dy="450" grid="1" gridSize="10" guides="1" tooltips="1" connect="1" arrows="1" fold="1" page="1" pageScale="1" pageWidth="827" pageHeight="1169" math="0" shadow="0">
      <root>
        <mxCell id="0" />
        <mxCell id="1" parent="0" />
        <mxCell id="83kWpG03T548aMmpoHzE-4" style="edgeStyle=orthogonalEdgeStyle;rounded=0;orthogonalLoop=1;jettySize=auto;html=1;entryX=0.5;entryY=0;entryDx=0;entryDy=0;" edge="1" parent="1" source="83kWpG03T548aMmpoHzE-1" target="83kWpG03T548aMmpoHzE-2">
          <mxGeometry relative="1" as="geometry" />
        </mxCell>
        <mxCell id="83kWpG03T548aMmpoHzE-1" value="start" style="ellipse;whiteSpace=wrap;html=1;" vertex="1" parent="1">
          <mxGeometry x="70" y="20" width="120" height="80" as="geometry" />
        </mxCell>
        <mxCell id="83kWpG03T548aMmpoHzE-12" value="" style="edgeStyle=orthogonalEdgeStyle;rounded=0;orthogonalLoop=1;jettySize=auto;html=1;" edge="1" parent="1" source="83kWpG03T548aMmpoHzE-2" target="83kWpG03T548aMmpoHzE-9">
          <mxGeometry relative="1" as="geometry" />
        </mxCell>
        <mxCell id="83kWpG03T548aMmpoHzE-2" value="read&lt;br&gt;a,b&lt;br&gt;&lt;br&gt;i=1&lt;br&gt;n=0" style="shape=parallelogram;perimeter=parallelogramPerimeter;whiteSpace=wrap;html=1;fixedSize=1;" vertex="1" parent="1">
          <mxGeometry x="70" y="170" width="120" height="90" as="geometry" />
        </mxCell>
        <mxCell id="83kWpG03T548aMmpoHzE-24" value="" style="edgeStyle=orthogonalEdgeStyle;rounded=0;orthogonalLoop=1;jettySize=auto;html=1;" edge="1" parent="1" source="83kWpG03T548aMmpoHzE-9" target="83kWpG03T548aMmpoHzE-18">
          <mxGeometry relative="1" as="geometry" />
        </mxCell>
        <mxCell id="83kWpG03T548aMmpoHzE-34" value="" style="edgeStyle=orthogonalEdgeStyle;rounded=0;orthogonalLoop=1;jettySize=auto;html=1;" edge="1" parent="1" source="83kWpG03T548aMmpoHzE-9" target="83kWpG03T548aMmpoHzE-33">
          <mxGeometry relative="1" as="geometry" />
        </mxCell>
        <mxCell id="83kWpG03T548aMmpoHzE-9" value="a!=0&lt;br&gt;" style="rhombus;whiteSpace=wrap;html=1;" vertex="1" parent="1">
          <mxGeometry x="90" y="320" width="80" height="80" as="geometry" />
        </mxCell>
        <mxCell id="83kWpG03T548aMmpoHzE-15" value="true" style="text;html=1;align=center;verticalAlign=middle;resizable=0;points=[];autosize=1;strokeColor=none;" vertex="1" parent="1">
          <mxGeometry x="190" y="330" width="40" height="20" as="geometry" />
        </mxCell>
        <mxCell id="83kWpG03T548aMmpoHzE-21" style="edgeStyle=orthogonalEdgeStyle;rounded=0;orthogonalLoop=1;jettySize=auto;html=1;exitX=1;exitY=0.5;exitDx=0;exitDy=0;entryX=0;entryY=0.5;entryDx=0;entryDy=0;" edge="1" parent="1" source="83kWpG03T548aMmpoHzE-18" target="83kWpG03T548aMmpoHzE-19">
          <mxGeometry relative="1" as="geometry" />
        </mxCell>
        <mxCell id="83kWpG03T548aMmpoHzE-18" value="n = n+i" style="rounded=0;whiteSpace=wrap;html=1;" vertex="1" parent="1">
          <mxGeometry x="250" y="330" width="120" height="60" as="geometry" />
        </mxCell>
        <mxCell id="83kWpG03T548aMmpoHzE-31" style="edgeStyle=orthogonalEdgeStyle;rounded=0;orthogonalLoop=1;jettySize=auto;html=1;exitX=1;exitY=0.5;exitDx=0;exitDy=0;" edge="1" parent="1" source="83kWpG03T548aMmpoHzE-19" target="83kWpG03T548aMmpoHzE-30">
          <mxGeometry relative="1" as="geometry" />
        </mxCell>
        <mxCell id="83kWpG03T548aMmpoHzE-19" value="b=a*a*a*a..n" style="rounded=0;whiteSpace=wrap;html=1;" vertex="1" parent="1">
          <mxGeometry x="410" y="330" width="120" height="60" as="geometry" />
        </mxCell>
        <mxCell id="83kWpG03T548aMmpoHzE-27" style="edgeStyle=orthogonalEdgeStyle;rounded=0;orthogonalLoop=1;jettySize=auto;html=1;" edge="1" parent="1" source="83kWpG03T548aMmpoHzE-25" target="83kWpG03T548aMmpoHzE-9">
          <mxGeometry relative="1" as="geometry" />
        </mxCell>
        <mxCell id="83kWpG03T548aMmpoHzE-25" value="i++" style="rounded=0;whiteSpace=wrap;html=1;" vertex="1" parent="1">
          <mxGeometry x="410" y="230" width="120" height="60" as="geometry" />
        </mxCell>
        <mxCell id="83kWpG03T548aMmpoHzE-32" style="edgeStyle=orthogonalEdgeStyle;rounded=0;orthogonalLoop=1;jettySize=auto;html=1;entryX=1;entryY=0.25;entryDx=0;entryDy=0;" edge="1" parent="1" source="83kWpG03T548aMmpoHzE-30" target="83kWpG03T548aMmpoHzE-25">
          <mxGeometry relative="1" as="geometry">
            <Array as="points">
              <mxPoint x="640" y="245" />
            </Array>
          </mxGeometry>
        </mxCell>
        <mxCell id="83kWpG03T548aMmpoHzE-37" style="edgeStyle=orthogonalEdgeStyle;rounded=0;orthogonalLoop=1;jettySize=auto;html=1;" edge="1" parent="1" source="83kWpG03T548aMmpoHzE-30">
          <mxGeometry relative="1" as="geometry">
            <mxPoint x="470" y="530" as="targetPoint" />
            <Array as="points">
              <mxPoint x="630" y="530" />
            </Array>
          </mxGeometry>
        </mxCell>
        <mxCell id="83kWpG03T548aMmpoHzE-30" value="print&amp;nbsp;&lt;br&gt;a^n" style="shape=parallelogram;perimeter=parallelogramPerimeter;whiteSpace=wrap;html=1;fixedSize=1;" vertex="1" parent="1">
          <mxGeometry x="570" y="330" width="120" height="60" as="geometry" />
        </mxCell>
        <mxCell id="83kWpG03T548aMmpoHzE-38" style="edgeStyle=orthogonalEdgeStyle;rounded=0;orthogonalLoop=1;jettySize=auto;html=1;" edge="1" parent="1" source="83kWpG03T548aMmpoHzE-33" target="83kWpG03T548aMmpoHzE-36">
          <mxGeometry relative="1" as="geometry" />
        </mxCell>
        <mxCell id="83kWpG03T548aMmpoHzE-33" value="print a= 0" style="shape=parallelogram;perimeter=parallelogramPerimeter;whiteSpace=wrap;html=1;fixedSize=1;" vertex="1" parent="1">
          <mxGeometry x="70" y="500" width="120" height="60" as="geometry" />
        </mxCell>
        <mxCell id="83kWpG03T548aMmpoHzE-35" value="false" style="text;html=1;align=center;verticalAlign=middle;resizable=0;points=[];autosize=1;strokeColor=none;" vertex="1" parent="1">
          <mxGeometry x="90" y="410" width="40" height="20" as="geometry" />
        </mxCell>
        <mxCell id="83kWpG03T548aMmpoHzE-36" value="end" style="ellipse;whiteSpace=wrap;html=1;" vertex="1" parent="1">
          <mxGeometry x="354" y="490" width="120" height="80" as="geometry" />
        </mxCell>
      </root>
    </mxGraphModel>
  </diagram>
</mxfile>
